<!-- Generator: Adobe Illustrator 19.1.0, SVG Export Plug-In  -->
<svg version="1.1"
	 xmlns="http://www.w3.org/2000/svg" xmlns:xlink="http://www.w3.org/1999/xlink" xmlns:a="http://ns.adobe.com/AdobeSVGViewerExtensions/3.0/"
	 x="0px" y="0px" width="32.9px" height="84.4px" viewBox="0 0 32.9 84.4" style="enable-background:new 0 0 32.9 84.4;"
	 xml:space="preserve">
<defs>
</defs>
<path d="M16.7,83.8C10.5,86,6,81.9,1.3,79.1c-0.9-0.6-1.5-3.1-1.2-4.4c2.5-9.6,14.7-13.7,23-7.8c2.7,1.9,6.6,3.1,5.8,7.6
	c-0.7,4-3.7,5.9-6.9,7.5C20.4,82.8,18.5,83.2,16.7,83.8z"/>
<path d="M17,0.5c5-0.9,8.9-0.7,12.4,2c4.7,3.6,4.7,8.7,0.1,12.1C24.6,18.2,18.4,18,13,14.2c-2.2-1.6-4-3.4-3.8-6.3
	c0.3-3.2,2-5.5,5-6.6C15.4,0.8,16.6,0.6,17,0.5z"/>
</svg>
